<svg enable-background="new 0 0 512.001 512.001" viewBox="0 0 512.001 512.001" xmlns="http://www.w3.org/2000/svg"><path d="m501.836 234.417c7.52-29.524-.869-60.835-22.144-82.642-4.581-4.696-8.595-9.877-11.992-15.429-28.074 15.027-64.543-3.095-67.361-36.949-32.971-2.744-51.014-37.405-38.054-65.145-.695-.636-1.382-1.282-2.058-1.942-21.809-21.275-53.118-29.664-82.642-22.144-14.162 3.608-29.004 3.608-43.167 0-29.524-7.52-60.834.869-82.642 22.144-10.462 10.206-23.314 17.626-37.383 21.584-29.331 8.248-52.252 31.168-60.502 60.497-3.958 14.069-11.378 26.922-21.584 37.384-21.275 21.809-29.664 53.118-22.144 82.642 3.608 14.162 3.608 29.004 0 43.166-7.52 29.524.869 60.835 22.144 82.642 10.206 10.462 17.626 23.314 21.584 37.384 8.249 29.329 31.169 52.249 60.499 60.499 14.069 3.958 26.922 11.378 37.383 21.584 21.809 21.275 53.118 29.664 82.642 22.144 14.162-3.608 29.004-3.608 43.167 0 29.524 7.52 60.834-.869 82.642-22.144 10.462-10.206 23.314-17.626 37.384-21.584 29.329-8.249 52.249-31.169 60.499-60.499 3.958-14.069 11.378-26.922 21.584-37.384 21.275-21.809 29.664-53.118 22.144-82.642-3.606-14.161-3.606-29.003.001-43.166z" fill="#f6b778"/><path d="m191.782 479.692c-10.462-10.206-23.314-17.626-37.383-21.584-29.329-8.249-52.249-31.17-60.499-60.499-3.958-14.068-11.378-26.922-21.584-37.383-21.275-21.809-29.664-53.118-22.144-82.642 3.608-14.162 3.608-29.004 0-43.166-7.52-29.524.869-60.835 22.144-82.642 10.206-10.462 17.626-23.315 21.584-37.383 8.249-29.328 31.169-52.249 60.499-60.499 14.069-3.958 26.922-11.378 37.383-21.584 11.566-11.284 25.805-18.941 41.033-22.525-29.051-6.821-59.625 1.633-81.04 22.525-10.462 10.206-23.314 17.626-37.383 21.584-29.329 8.248-52.25 31.169-60.5 60.497-3.958 14.068-11.378 26.922-21.584 37.384-21.275 21.809-29.664 53.118-22.144 82.642 3.608 14.162 3.608 29.004 0 43.166-7.52 29.524.869 60.835 22.144 82.642 10.206 10.461 17.626 23.315 21.584 37.384 8.249 29.329 31.169 52.249 60.499 60.499 14.069 3.958 26.922 11.377 37.383 21.584 21.415 20.891 51.99 29.346 81.04 22.525-15.227-3.584-29.466-11.242-41.032-22.525z" fill="#dda46c"/><ellipse cx="194.244" cy="98.538" fill="#8b6c52" rx="33.948" ry="26.095"/><ellipse cx="125.412" cy="341.1" fill="#8b6c52" rx="33.948" ry="26.095"/><ellipse cx="360.903" cy="383.137" fill="#8b6c52" rx="33.948" ry="26.095"/><g fill="#654d3b"><ellipse cx="228.73" cy="409.222" rx="23.729" ry="18.236"/><ellipse cx="326.337" cy="135.734" rx="23.729" ry="18.236"/><ellipse cx="91.456" cy="204.896" rx="23.729" ry="18.236"/><ellipse cx="432.835" cy="270.148" rx="23.729" ry="18.236"/></g><path d="m370.887 72.977c-6.385-11.015-7.06-24.305-1.806-35.551 1.388-2.972.685-6.5-1.735-8.713-.636-.581-1.263-1.171-1.88-1.774-23.516-22.94-57.902-32.152-89.733-24.044-12.909 3.289-26.555 3.289-39.464 0-31.832-8.108-66.217 1.104-89.733 24.044-9.536 9.302-21.354 16.125-34.176 19.733-31.623 8.895-56.794 34.065-65.688 65.688-3.607 12.823-10.43 24.641-19.732 34.176-22.941 23.514-32.154 57.898-24.045 89.733 3.289 12.909 3.289 26.555 0 39.464-8.108 31.835 1.104 66.217 24.044 89.733 9.302 9.536 16.126 21.354 19.732 34.176 8.895 31.624 34.066 56.794 65.688 65.688 12.823 3.607 24.641 10.43 34.176 19.732 17.871 17.434 42.016 26.94 66.554 26.939 7.748 0 15.54-.948 23.18-2.895 12.908-3.289 26.554-3.289 39.464 0 7.641 1.946 15.43 2.895 23.179 2.895 24.535 0 48.682-9.506 66.554-26.939 9.536-9.302 21.354-16.126 34.176-19.732 31.624-8.895 56.794-34.065 65.688-65.688 3.607-12.823 10.43-24.641 19.732-34.177 22.939-23.515 32.152-57.898 24.044-89.733-3.289-12.908-3.289-26.555 0-39.464 8.108-31.835-1.104-66.217-24.044-89.733-4.153-4.257-7.841-9.002-10.963-14.105-2.074-3.391-6.434-4.575-9.939-2.698-11.303 6.049-24.933 5.917-36.462-.354-11.54-6.276-18.787-17.431-19.883-30.604-.304-3.652-3.202-6.549-6.853-6.853-12.75-1.061-23.712-7.967-30.075-18.944zm49.642 69.581c13.912 7.567 30.08 8.661 44.437 3.25 2.831 3.976 5.963 7.728 9.357 11.207 19.314 19.798 27.072 48.749 20.245 75.553-3.905 15.332-3.905 31.538 0 46.87 6.827 26.804-.93 55.754-20.245 75.553-11.048 11.325-19.151 25.361-23.435 40.59-7.489 26.627-28.683 47.82-55.309 55.309-15.23 4.284-29.265 12.388-40.59 23.435-19.798 19.314-48.75 27.072-75.553 20.245-7.666-1.952-15.551-2.929-23.435-2.929s-15.77.976-23.435 2.929c-26.806 6.828-55.755-.93-75.553-20.245-11.325-11.047-25.36-19.151-40.59-23.435-26.627-7.488-47.819-28.682-55.309-55.309-4.284-15.23-12.387-29.265-23.435-40.59-19.315-19.798-27.072-48.749-20.245-75.553 3.905-15.332 3.905-31.538 0-46.87-6.828-26.804.929-55.754 20.245-75.553 11.048-11.325 19.151-25.361 23.435-40.591 7.488-26.628 28.682-47.82 55.308-55.31 15.23-4.284 29.266-12.387 40.59-23.435 19.799-19.314 48.749-27.072 75.553-20.244 15.331 3.905 31.538 3.905 46.869 0 26.109-6.65 54.246.535 73.987 18.757-4.98 14.485-3.415 30.681 4.486 44.31 7.837 13.521 20.669 22.603 35.783 25.539 3.023 15.656 12.574 28.757 26.839 36.517z"/><path d="m166.073 234.348c-4.143 0-7.501 3.358-7.501 7.501v16.275c0 4.143 3.359 7.501 7.501 7.501s7.501-3.359 7.501-7.501v-16.274c0-4.144-3.358-7.502-7.501-7.502z"/><path d="m338.426 241.85v16.275c0 4.143 3.359 7.501 7.501 7.501 4.143 0 7.501-3.359 7.501-7.501v-16.275c0-4.144-3.359-7.501-7.501-7.501-4.142-.001-7.501 3.357-7.501 7.501z"/><path d="m288.207 252.44c-3.12-2.726-7.858-2.408-10.585.71-5.278 6.038-13.159 9.501-21.623 9.501s-16.345-3.463-21.623-9.501c-2.726-3.12-7.465-3.438-10.585-.711-3.12 2.726-3.438 7.465-.711 10.585 8.127 9.298 20.126 14.63 32.919 14.63s24.791-5.332 32.919-14.63c2.727-3.119 2.409-7.858-.711-10.584z"/><path d="m235.693 98.538c0-18.522-18.594-33.591-41.45-33.591s-41.449 15.069-41.449 33.591 18.594 33.591 41.449 33.591 41.45-15.069 41.45-33.591zm-41.45 18.588c-14.335 0-26.447-8.512-26.447-18.588s12.111-18.588 26.447-18.588c14.335 0 26.448 8.512 26.448 18.588s-12.113 18.588-26.448 18.588z"/><path d="m125.407 307.513c-22.856 0-41.449 15.069-41.449 33.591s18.594 33.591 41.449 33.591 41.449-15.069 41.449-33.591-18.594-33.591-41.449-33.591zm0 52.18c-14.335 0-26.447-8.512-26.447-18.588 0-10.077 12.111-18.588 26.447-18.588s26.447 8.512 26.447 18.588-12.112 18.588-26.447 18.588z"/><path d="m319.451 383.133c0 18.522 18.594 33.591 41.449 33.591s41.449-15.069 41.449-33.591-18.594-33.591-41.449-33.591-41.449 15.069-41.449 33.591zm67.897 0c0 10.076-12.111 18.588-26.447 18.588s-26.447-8.512-26.447-18.588 12.111-18.588 26.447-18.588 26.447 8.513 26.447 18.588z"/><path d="m228.73 383.485c-17.221 0-31.231 11.546-31.231 25.737s14.01 25.737 31.231 25.737 31.23-11.546 31.23-25.737-14.009-25.737-31.23-25.737zm0 36.474c-8.797 0-16.229-4.917-16.229-10.735s7.431-10.735 16.229-10.735c8.797 0 16.228 4.917 16.228 10.735s-7.432 10.735-16.228 10.735z"/><path d="m357.567 135.737c0-14.191-14.01-25.737-31.231-25.737s-31.23 11.546-31.23 25.737 14.009 25.737 31.23 25.737 31.231-11.545 31.231-25.737zm-47.459 0c0-5.819 7.431-10.735 16.228-10.735s16.229 4.916 16.229 10.735-7.431 10.735-16.229 10.735c-8.797 0-16.228-4.916-16.228-10.735z"/><path d="m122.688 204.895c0-14.191-14.009-25.737-31.23-25.737s-31.231 11.546-31.231 25.737 14.01 25.737 31.231 25.737 31.23-11.544 31.23-25.737zm-47.458 0c0-5.819 7.431-10.735 16.229-10.735 8.797 0 16.228 4.917 16.228 10.735 0 5.819-7.431 10.735-16.228 10.735-8.797.001-16.229-4.915-16.229-10.735z"/><path d="m432.836 295.89c17.221 0 31.23-11.546 31.23-25.737s-14.009-25.737-31.23-25.737-31.231 11.546-31.231 25.737 14.01 25.737 31.231 25.737zm0-36.473c8.797 0 16.228 4.917 16.228 10.735 0 5.819-7.431 10.735-16.228 10.735s-16.229-4.916-16.229-10.735c.001-5.819 7.432-10.735 16.229-10.735z"/></svg>